<?xml version="1.0" encoding="utf-8"?>
<!-- Generator: Adobe Illustrator 21.1.0, SVG Export Plug-In . SVG Version: 6.00 Build 0)  -->
<svg version="1.1" id="Layer_1" xmlns="http://www.w3.org/2000/svg" xmlns:xlink="http://www.w3.org/1999/xlink" x="0px" y="0px"
	 viewBox="0 0 512 512" style="enable-background:new 0 0 512 512;" xml:space="preserve">
<style type="text/css">
	.st0{fill:#9E1122;}
</style>
<g transform="translate(1 1)">
	<g>
		<path class="st0" d="M487.1,296l-44.4-170.7c-0.9-3.4-1.7-6.8-2.6-10.2c-3.4-14.5-6.8-29.9-15.4-43.5
			C399.4,29,349.8,1.4,297.6-0.8C295.4-1,293.2-1,290.8-1H220c-2.6,0-4.8,0-7.3,0.2c-52,2.4-101.4,30-127.5,72.3
			c-8.5,13.7-11.9,29-15.4,43.5c-0.9,3.4-1.7,6.8-2.6,10.2L22.9,296c-3.4,13.7,4.3,28.2,17.9,31.6l33.3,8.5
			c13.7,3.4,28.2-4.3,31.6-17.9l35.8-130.6c0.9-1.7,2.6-0.9,2.6,0V255c-9.4,0-17.1,7.7-17.1,17.1v17.1c0,9.4,7.7,17.1,17.1,17.1
			v179.2c0,14.5,11.1,25.6,25.6,25.6h170.7c14.5,0,25.6-11.1,25.6-25.6V306.2c9.4,0,17.1-7.7,17.1-17.1v-17.1
			c0-9.4-7.7-17.1-17.1-17.1v-67.4c0-0.9,2.6-0.9,2.6,0l35.8,130.6c3.4,11.1,13.7,18.8,24.7,18.8c2.6,0,4.3-0.9,6.8-0.9l33.3-8.5
			C482.8,323.3,490.5,309.6,487.1,296z M290,16.1c0.3,0,0.6,0,0.9,0L255,145.8L220,16.1H290z M280.6,272.1v25.6v25.6h-17.1v-51.2
			H280.6z M246.5,331.8v25.6h-17.1v-59.7v-25.6h6.8h1.7h8.5V331.8z M143.2,168c-8.5,0-15.4,6-17.9,13.7L89.5,312.2
			c-0.9,4.3-6,6.8-10.2,6l-33.3-8.5c-4.3-0.9-6.8-6-6-10.2l44.4-170.7c0.9-3.4,1.7-6.8,2.6-10.2c3.4-13.7,6-26.5,12.8-38.4
			c21.1-33.9,60.2-57.9,102.6-63L246,178.9L230.8,255h-9.9h-59.7v-69.1C161.1,176.5,153.5,168,143.2,168z M144.1,272.1h8.5h59.7
			v17.1h-59.7h-8.5V272.1z M348.9,485.4c0,5.1-3.4,8.5-8.5,8.5H169.7c-5.1,0-8.5-3.4-8.5-8.5V306.2h51.2v51.2
			c0,9.4,7.7,17.1,17.1,17.1h17.1c9.4,0,17.1-7.7,17.1-17.1v-17.1h17.1c9.4,0,17.1-7.7,17.1-17.1v-17.1h51.2V485.4z M365.9,289.1
			h-8.5h-59.7v-17.1h59.7h8.5L365.9,289.1L365.9,289.1z M464.1,311.3l-33.3,8.5c-4.3,0.9-9.4-1.7-10.2-6l-35.8-130.6
			c-2.6-8.5-9.4-13.7-17.9-13.7c-9.4,0-17.9,8.5-17.9,17.9V255h-59.7H255h-6.5l15-75.1l44.2-162.7c42.7,5.3,81.5,29.3,101.8,64.6
			c6.8,11.1,10.2,24.7,13.7,38.4c0.9,3.4,1.7,6.8,2.6,10.2L470,301.1C470.9,305.3,468.3,310.5,464.1,311.3z"/>
	</g>
</g>
</svg>
