<?xml version="1.0" encoding="iso-8859-1"?>
<!-- Generator: Adobe Illustrator 19.0.0, SVG Export Plug-In . SVG Version: 6.00 Build 0)  -->
<svg version="1.1" id="Layer_1" xmlns="http://www.w3.org/2000/svg" xmlns:xlink="http://www.w3.org/1999/xlink" x="0px" y="0px"
	 viewBox="0 0 512.001 512.001" style="enable-background:new 0 0 512.001 512.001;" xml:space="preserve">
<g>
	<g>
		<path d="M503.572,387.533c-4.975-4.975-11.453-7.896-18.409-8.356l-12.72-61.654c-0.924-4.483-5.31-7.366-9.791-6.442
			c-4.483,0.925-7.367,5.308-6.442,9.791l12.014,58.233H149.713c-4.577,0-8.287,3.711-8.287,8.287s3.711,8.287,8.287,8.287h328.64
			c0.012,0,0.024,0.001,0.038,0.001c0.011,0,0.021-0.001,0.032-0.001h4.805c3.259,0,6.323,1.268,8.627,3.572
			c2.304,2.304,3.572,5.371,3.572,8.636c0,6.726-5.473,12.199-12.199,12.199H91.967c-3.26,0-6.33-1.272-8.646-3.581
			c-2.298-2.292-3.563-5.352-3.563-8.618c0-6.733,5.477-12.21,12.21-12.21h29.624c4.577,0,8.287-3.711,8.287-8.287
			s-3.711-8.287-8.287-8.287H55.833l20.694-260.77c1.175-14.815,13.737-26.422,28.6-26.422h245.845
			c33.602,0,62.923,23.89,69.717,56.801l29.565,143.291c0.924,4.482,5.302,7.365,9.791,6.442c4.483-0.925,7.367-5.308,6.442-9.791
			l-8.261-40.035h20.17c2.581,0,5.017-1.203,6.585-3.254c1.568-2.052,2.091-4.717,1.412-7.208l-15.669-57.602
			c-0.981-3.608-4.257-6.112-7.997-6.112h-19.807l-6-29.078c-8.377-40.578-44.524-70.028-85.949-70.028H105.127
			c-23.449,0-43.27,18.312-45.124,41.686l-1.379,17.376H8.287c-4.577,0-8.287,3.711-8.287,8.287s3.711,8.287,8.287,8.287h49.022
			L38.601,386.737c-0.183,2.305,0.606,4.581,2.175,6.28c1.568,1.698,3.776,2.664,6.087,2.664h19.046
			c-1.745,3.709-2.726,7.846-2.726,12.21c0,7.703,2.996,14.932,8.435,20.356c5.445,5.429,12.672,8.418,20.349,8.418h391.26
			c15.865,0,28.773-12.908,28.773-28.773C512,400.196,509.007,392.967,503.572,387.533z M456.396,191.017l11.16,41.028h-12.748
			l-8.465-41.028H456.396z"/>
	</g>
</g>
<g>
	<g>
		<path d="M363.635,249.305l-9.747-62.335c-4.773-30.463-30.611-52.573-61.436-52.573H187.281c-4.577,0-8.287,3.711-8.287,8.287
			s3.711,8.287,8.287,8.287h105.171c22.609,0,41.56,16.219,45.061,38.561l8.251,52.764h-24.217V217.79
			c0-4.577-3.711-8.287-8.287-8.287H203.293c-4.577,0-8.287,3.71-8.287,8.287v24.508h-75.978v-91.326h37.315
			c4.577,0,8.287-3.711,8.287-8.287s-3.711-8.287-8.287-8.287H110.74c-4.577,0-8.287,3.711-8.287,8.287v107.901
			c0,4.577,3.711,8.287,8.287,8.287h244.707c2.421,0,4.722-1.059,6.296-2.899S364.009,251.697,363.635,249.305z M304.972,242.298
			H211.58v-16.221h93.392V242.298z"/>
	</g>
</g>
<g>
</g>
<g>
</g>
<g>
</g>
<g>
</g>
<g>
</g>
<g>
</g>
<g>
</g>
<g>
</g>
<g>
</g>
<g>
</g>
<g>
</g>
<g>
</g>
<g>
</g>
<g>
</g>
<g>
</g>
</svg>
