<?xml version="1.0" encoding="utf-8"?>
<!-- Generator: Adobe Illustrator 21.1.0, SVG Export Plug-In . SVG Version: 6.00 Build 0)  -->
<svg version="1.1" id="Layer_1" xmlns="http://www.w3.org/2000/svg" xmlns:xlink="http://www.w3.org/1999/xlink" x="0px" y="0px"
	 viewBox="0 0 512 512" style="enable-background:new 0 0 512 512;" xml:space="preserve">
<style type="text/css">
	.st0{fill:#9E1122;}
</style>
<g>
	<g>
		<path class="st0" d="M123.5,0.9C55.4,0.9,0,56.3,0,124.4v142.3c0,2.5,1.2,4.8,3.3,6.2c2,1.4,4.6,1.8,7,0.9l14-5.2v144
			c0,54.3,44.2,98.5,98.5,98.5c54.3,0,98.5-44.2,98.5-98.5V268.2l15.4,5.6c0.8,0.3,1.7,0.5,2.6,0.5c1.5,0,3.1-0.5,4.4-1.4
			c2-1.4,3.2-3.7,3.2-6.2V124.4C246.9,56.3,191.5,0.9,123.5,0.9z M206.1,412.6c0,45.9-37.4,83.3-83.3,83.3
			c-45.9,0-83.3-37.4-83.3-83.3V263.3c54.1-17.2,112.4-17.3,166.7-0.4V412.6z M231.7,255.8l-8.1-2.9
			c-32.3-11.8-66.3-17.7-100.3-17.7c-34.3,0-68.7,6-101.3,18.1l-6.8,2.5v-33.9l12.1-4.5c61.6-22.7,129.4-22.8,191.1-0.4l13.3,4.8
			L231.7,255.8L231.7,255.8z M231.7,205.6L231.7,205.6l-8.1-2.9c-65-23.7-136.6-23.6-201.6,0.4l-6.8,2.5v-81.2
			c0-59.7,48.6-108.2,108.2-108.2s108.2,48.6,108.2,108.2L231.7,205.6L231.7,205.6z"/>
	</g>
</g>
<g>
	<g>
		<path class="st0" d="M388.5,0.9c-68.1,0-123.5,55.4-123.5,123.5v142.3c0,2.5,1.2,4.8,3.3,6.2c2,1.4,4.6,1.8,7,0.9l14-5.2v144
			c0,54.3,44.2,98.5,98.5,98.5s98.5-44.2,98.5-98.5V268.2l15.4,5.6c0.8,0.3,1.7,0.5,2.6,0.5c1.5,0,3.1-0.5,4.4-1.4
			c2-1.4,3.2-3.7,3.2-6.2V124.4C512,56.3,456.6,0.9,388.5,0.9z M471.2,412.6c0,45.9-37.4,83.3-83.3,83.3s-83.3-37.4-83.3-83.3V263.3
			c54.1-17.2,112.4-17.3,166.7-0.4L471.2,412.6L471.2,412.6z M496.8,255.8l-8.1-2.9c-32.3-11.8-66.3-17.7-100.3-17.7
			c-34.3,0-68.7,6-101.3,18.1l-6.8,2.5v-33.9l12.1-4.5c61.6-22.7,129.4-22.8,191.1-0.4l13.3,4.8L496.8,255.8L496.8,255.8z
			 M496.8,205.6l-8.1-2.9c-65-23.7-136.6-23.6-201.6,0.4l-6.8,2.5v-81.2c0-59.7,48.6-108.2,108.2-108.2
			c59.7,0,108.2,48.6,108.2,108.2L496.8,205.6L496.8,205.6z"/>
	</g>
</g>
</svg>
