<?xml version="1.0" encoding="iso-8859-1"?>
<!-- Generator: Adobe Illustrator 19.0.0, SVG Export Plug-In . SVG Version: 6.00 Build 0)  -->
<svg version="1.1" id="Layer_1" xmlns="http://www.w3.org/2000/svg" xmlns:xlink="http://www.w3.org/1999/xlink" x="0px" y="0px"
	 viewBox="0 0 512.001 512.001" style="enable-background:new 0 0 512.001 512.001;" xml:space="preserve">
<g>
	<g>
		<path d="M494.587,0h-351.71c-4.978,0-9.015,4.036-9.015,9.015c0,4.978,4.036,9.015,9.015,9.015h342.695v441.665H43.909v-75.723
			h22.297v44.412c0,4.978,4.036,9.015,9.015,9.015h51.943c4.978,0,9.015-4.036,9.015-9.015c0-4.978-4.036-9.015-9.015-9.015H84.235
			v-35.397h7.78c4.978,0,9.015-4.036,9.015-9.015v-90.729c0-4.978-4.036-9.015-9.015-9.015h-7.78v-72.7h7.78
			c4.978,0,9.015-4.036,9.015-9.015v-90.731c0-4.978-4.036-9.015-9.015-9.015h-7.78V58.355h361.011v48.699
			c0,4.978,4.036,9.015,9.015,9.015c4.978,0,9.015-4.036,9.015-9.015V49.341c0-4.978-4.036-9.015-9.015-9.015H75.22
			c-4.978,0-9.015,4.036-9.015,9.015v44.41H43.909V18.029h67.544c4.978,0,9.015-4.036,9.015-9.015c0-4.978-4.036-9.015-9.015-9.015
			H34.894c-4.978,0-9.015,4.036-9.015,9.015v84.738h-8.465c-4.978,0-9.015,4.036-9.015,9.015v90.731
			c0,4.978,4.036,9.015,9.015,9.015h8.465v72.7h-8.465c-4.978,0-9.015,4.036-9.015,9.015v90.729c0,4.978,4.036,9.015,9.015,9.015
			h8.465v84.738c0,4.978,4.036,9.015,9.015,9.015h36.348v25.264c0,4.978,4.036,9.015,9.015,9.015h94.762
			c4.978,0,9.015-4.036,9.015-9.015v-25.264h161.414v25.264c0,4.978,4.036,9.015,9.015,9.015h94.762
			c4.978,0,9.015-4.036,9.015-9.015v-25.264h36.349c4.978,0,9.015-4.036,9.015-9.015V9.015C503.601,4.036,499.567,0,494.587,0z
			 M26.429,184.482v-72.7h56.57v72.702h-56.57V184.482z M66.206,202.511v72.7H43.909v-72.7H66.206z M26.429,365.942v-72.7h56.57
			v72.7H26.429z M89.271,493.971v-16.249h76.733v16.249H89.271z M440.21,493.971h-76.733v-16.249h76.733V493.971z"/>
	</g>
</g>
<g>
	<g>
		<path d="M454.261,129.464c-4.978,0-9.015,4.036-9.015,9.015v280.889H158.588c-4.978,0-9.015,4.036-9.015,9.015
			c0,4.978,4.036,9.015,9.015,9.015h295.673c4.978,0,9.015-4.036,9.015-9.015V138.479
			C463.275,133.5,459.239,129.464,454.261,129.464z"/>
	</g>
</g>
<g>
	<g>
		<path d="M268.607,140.005c-54.466,0-98.778,44.312-98.778,98.778c0,54.466,44.312,98.778,98.778,98.778
			c54.467-0.001,98.778-44.313,98.778-98.778C367.385,184.317,323.073,140.005,268.607,140.005z M348.84,229.768h-33.776
			c-1.232-6.361-3.732-12.273-7.24-17.453l23.861-23.861C340.96,200.054,347.108,214.25,348.84,229.768z M277.623,158.55
			c15.518,1.732,29.714,7.881,41.314,17.155l-23.861,23.861c-5.182-3.508-11.094-6.008-17.453-7.24V158.55z M259.594,158.551v33.774
			h-0.001c-6.359,1.232-12.273,3.732-17.453,7.24l-23.86-23.86C229.879,166.431,244.076,160.283,259.594,158.551z M205.531,188.454
			l23.861,23.86c-3.508,5.182-6.008,11.094-7.24,17.455h-33.776C190.107,214.25,196.257,200.054,205.531,188.454z M188.377,247.796
			h33.774v0.001c1.232,6.359,3.732,12.273,7.24,17.453l-23.86,23.86C196.257,277.51,190.109,263.314,188.377,247.796z
			 M259.593,319.015c-15.518-1.732-29.713-7.881-41.314-17.155l23.861-23.861c5.182,3.508,11.094,6.008,17.453,7.24V319.015z
			 M239.309,238.783c0-16.155,13.143-29.3,29.298-29.3s29.3,13.144,29.3,29.3s-13.144,29.298-29.3,29.298
			S239.309,254.938,239.309,238.783z M277.623,319.013v-33.774h-0.001c6.359-1.232,12.273-3.732,17.455-7.24l23.861,23.86
			C307.337,311.133,293.141,317.281,277.623,319.013z M331.685,289.112l-23.861-23.861c3.508-5.182,6.008-11.094,7.24-17.453h33.776
			C347.108,263.316,340.959,277.51,331.685,289.112z"/>
	</g>
</g>
<g>
</g>
<g>
</g>
<g>
</g>
<g>
</g>
<g>
</g>
<g>
</g>
<g>
</g>
<g>
</g>
<g>
</g>
<g>
</g>
<g>
</g>
<g>
</g>
<g>
</g>
<g>
</g>
<g>
</g>
</svg>
