<?xml version="1.0" encoding="iso-8859-1"?>
<!-- Generator: Adobe Illustrator 19.0.0, SVG Export Plug-In . SVG Version: 6.00 Build 0)  -->
<svg version="1.1" id="Layer_1" xmlns="http://www.w3.org/2000/svg" xmlns:xlink="http://www.w3.org/1999/xlink" x="0px" y="0px"
	 viewBox="0 0 512.001 512.001" style="enable-background:new 0 0 512.001 512.001;" xml:space="preserve">
<g>
	<g>
		<path d="M503.719,130.69l-2.081-4.992c-10.645-25.547-32.994-44.944-59.744-51.876c-1.11-0.293-2.219-0.574-3.319-0.849
			c-13.736-3.474-28.232-6.578-43.087-9.226c-4.72-0.842-9.248,2.307-10.09,7.037s2.307,9.247,7.037,10.09
			c14.45,2.576,28.538,5.593,41.898,8.971c1.047,0.262,2.082,0.523,3.157,0.807c21.551,5.586,39.529,21.189,48.092,41.739
			l2.081,4.992c2.627,6.305,4.492,12.829,5.627,19.445l-117.125-24.465l-3.614-21.406c-0.563-3.333-3.006-6.038-6.263-6.937
			c-30.393-8.385-69.559-13.004-110.281-13.004c-40.734,0-79.9,4.618-110.281,13.004c-3.259,0.899-5.701,3.605-6.263,6.937
			l-3.617,21.402l-30,6.266c-4.703,0.982-7.719,5.59-6.737,10.293c0.857,4.103,4.473,6.922,8.506,6.922
			c0.589,0,1.188-0.06,1.787-0.186l23.33-4.874l-3.839,22.709L20.437,195.186c-1.78-6.679-2.758-13.498-2.974-20.328l57.55-12.022
			c4.703-0.982,7.719-5.59,6.737-10.293c-0.982-4.702-5.59-7.716-10.293-6.736l-52.742,11.017c1.137-6.616,3-13.137,5.626-19.441
			l2.08-4.992c8.559-20.551,26.535-36.154,48.128-41.751c0.996-0.263,2.006-0.516,3.016-0.769c0.008-0.001,0.126-0.031,0.133-0.034
			c83.789-21.19,186.37-26.315,281.44-14.062c4.775,0.616,9.125-2.75,9.739-7.516c0.614-4.765-2.751-9.125-7.514-9.739
			C264.207,45.999,159.26,51.265,73.342,72.993c-1.086,0.271-2.17,0.543-3.2,0.815c-26.792,6.944-49.139,26.343-59.78,51.89
			l-2.081,4.992c-10.303,24.733-11.015,52.252-2.006,77.485c1.452,4.065,5.659,6.454,9.901,5.605l121.998-24.407
			c3.536-0.707,6.269-3.523,6.871-7.08l10.635-62.913c28.124-7.09,63.477-10.971,100.324-10.971
			c36.837,0,72.19,3.882,100.324,10.972l10.623,62.91c0.601,3.557,3.334,6.374,6.872,7.082l106.122,21.225
			c0.15,0.038,0.302,0.073,0.455,0.103l15.427,3.081c0.572,0.114,1.144,0.169,1.708,0.169c3.612,0,6.932-2.259,8.187-5.774
			C514.737,182.946,514.025,155.426,503.719,130.69z M491.559,195.19l-7.302-1.457c-0.148-0.038-0.298-0.072-0.45-0.102
			l-100.7-20.14l-3.834-22.708l115.265,24.077C494.321,181.691,493.342,188.511,491.559,195.19z"/>
	</g>
</g>
<g>
	<g>
		<path d="M468.784,450.687l-3.913-44.333c-0.397-4.491-4.157-7.933-8.665-7.933h-11.787l-6.538-49.341
			c-0.63-4.762-4.998-8.113-9.766-7.481c-4.762,0.631-8.112,5.003-7.48,9.766l6.235,47.056H85.135l20.967-158.301
			c0.81-6.111,5.405-11.083,11.432-12.372l33.286-7.115c12.918-2.76,22.943-13.388,24.95-26.444l2.891-18.825
			c1.103-7.182,7.178-12.395,14.444-12.395h125.789c7.267,0,13.343,5.215,14.444,12.397l2.887,18.817
			c2.003,13.058,12.028,23.688,24.95,26.451l33.282,7.114c6.029,1.289,10.623,6.261,11.433,12.372l10.936,82.533
			c0.63,4.762,5.015,8.115,9.766,7.481c4.762-0.631,8.112-5.003,7.48-9.766l-10.936-82.534
			c-1.775-13.385-11.838-24.275-25.043-27.098l-33.282-7.114c-5.899-1.261-10.477-6.113-11.391-12.075l-2.887-18.817
			c-2.414-15.735-15.721-27.157-31.64-27.157h-3.178v-11.384c0-4.804-3.893-8.699-8.699-8.699c-4.805,0-8.699,3.895-8.699,8.699
			v11.384h-84.634v-11.384c0-4.804-3.894-8.699-8.699-8.699s-8.699,3.895-8.699,8.699v11.384h-3.181
			c-15.917,0-29.223,11.418-31.64,27.15l-2.891,18.825c-0.915,5.96-5.493,10.812-11.389,12.073l-33.286,7.115
			c-13.206,2.823-23.269,13.714-25.044,27.1l-21.27,160.584H55.801c-4.508,0-8.268,3.443-8.665,7.933l-3.913,44.334
			c-0.216,2.431,0.602,4.84,2.249,6.64c1.648,1.799,3.976,2.824,6.415,2.824h65.169c4.805,0,8.699-3.895,8.699-8.699
			s-3.894-8.699-8.699-8.699H61.389l2.378-26.937h384.475l2.379,26.937H146.053c-4.805,0-8.699,3.895-8.699,8.699
			s3.893,8.699,8.699,8.699H460.12c2.44,0,4.768-1.025,6.415-2.825C468.183,455.526,468.999,453.117,468.784,450.687z"/>
	</g>
</g>
<g>
	<g>
		<path d="M256.004,200.189c-48.428,0-87.828,39.399-87.828,87.828c0,48.428,39.4,87.827,87.828,87.827
			c48.428,0,87.828-39.399,87.828-87.827C343.831,239.589,304.432,200.189,256.004,200.189z M256.004,358.447
			c-38.835,0-70.431-31.595-70.431-70.43c0-38.835,31.595-70.431,70.431-70.431c38.836,0,70.431,31.595,70.431,70.431
			C326.434,326.853,294.839,358.447,256.004,358.447z"/>
	</g>
</g>
<g>
	<g>
		<path d="M256.004,255.974c-17.669,0-32.043,14.375-32.043,32.043s14.375,32.042,32.043,32.042
			c17.669,0,32.043-14.375,32.043-32.042C288.047,270.349,273.672,255.974,256.004,255.974z M256.004,302.663
			c-8.076,0-14.646-6.57-14.646-14.645s6.57-14.646,14.646-14.646c8.076,0,14.646,6.57,14.646,14.646
			C270.65,296.093,264.079,302.663,256.004,302.663z"/>
	</g>
</g>
<g>
</g>
<g>
</g>
<g>
</g>
<g>
</g>
<g>
</g>
<g>
</g>
<g>
</g>
<g>
</g>
<g>
</g>
<g>
</g>
<g>
</g>
<g>
</g>
<g>
</g>
<g>
</g>
<g>
</g>
</svg>
