<?xml version="1.0" encoding="iso-8859-1"?>
<!-- Generator: Adobe Illustrator 19.0.0, SVG Export Plug-In . SVG Version: 6.00 Build 0)  -->
<svg version="1.1" id="Capa_1" xmlns="http://www.w3.org/2000/svg" xmlns:xlink="http://www.w3.org/1999/xlink" x="0px" y="0px"
	 viewBox="0 0 511.998 511.998" style="enable-background:new 0 0 511.998 511.998;" xml:space="preserve">
<g>
	<g>
		<path d="M283.958,219.022l-21.463-37.182c-1.34-2.321-3.816-3.751-6.496-3.751s-5.156,1.43-6.496,3.751l-21.452,37.163
			c-2.88,4.934-4.402,10.565-4.402,16.287c0.001,17.839,14.513,32.351,32.35,32.351c17.837,0,32.35-14.512,32.35-32.35
			C288.349,229.576,286.831,223.951,283.958,219.022z M255.999,252.641c-9.566,0-17.35-7.783-17.35-17.35
			c0.001-3.067,0.816-6.084,2.375-8.757l14.975-25.942l14.975,25.942c0.006,0.011,0.012,0.021,0.019,0.032
			c1.541,2.641,2.356,5.657,2.356,8.725C273.349,244.857,265.566,252.641,255.999,252.641z"/>
	</g>
</g>
<g>
	<g>
		<path d="M362.899,140.032c0-31.54-25.66-57.2-57.2-57.2h-9.065V64.699h9.066c4.142,0,7.5-3.357,7.5-7.5s-3.358-7.5-7.5-7.5h-0.783
			V7.5c0-4.143-3.358-7.5-7.5-7.5h-82.833c-4.142,0-7.5,3.357-7.5,7.5v42.199h-0.785c-4.142,0-7.5,3.357-7.5,7.5s3.358,7.5,7.5,7.5
			h9.067v18.133h-9.069c-31.539,0-57.197,25.658-57.197,57.197v16.531c0,0.013-0.002,0.025-0.002,0.037
			c0,0.013,0.002,0.025,0.002,0.037l-0.001,132.471c0,0.009-0.001,0.017-0.001,0.026c0,0.009,0.001,0.017,0.001,0.026v41.378
			c0,0.004-0.001,0.009-0.001,0.013c0,0.005,0.001,0.009,0.001,0.013v49.678c0,0.003,0,0.006,0,0.009s0,0.006,0,0.009v49.686
			c0,0.002,0,0.003,0,0.005s0,0.003,0,0.005v41.407v0.001v0.001v16.569c0,13.271,10.797,24.067,24.068,24.067h165.665
			c13.271,0,24.068-10.797,24.068-24.067v-16.569v-0.001L362.899,140.032z M222.083,15h67.833v34.699h-67.833V15z M164.1,140.028
			c0-23.266,18.93-42.196,42.197-42.196l33.136,0.001c4.142,0,7.5-3.357,7.5-7.5c0-4.142-3.357-7.5-7.5-7.5h-9.067V64.699h51.267
			v18.133h-9.066c-4.143,0-7.5,3.358-7.5,7.5c0,4.143,3.358,7.5,7.5,7.5l33.131-0.001c23.269,0,42.2,18.931,42.2,42.2v9.065H164.1
			V140.028z M164.1,238.651h18.131v18.132H164.1V238.651z M164.099,437.449h25.632c4.142,0,7.5-3.357,7.5-7.5s-3.358-7.5-7.5-7.5
			h-25.632v-34.7h25.632c4.142,0,7.5-3.357,7.5-7.5s-3.358-7.5-7.5-7.5h-25.632v-34.7h25.632c4.142,0,7.5-3.357,7.5-7.5
			s-3.358-7.5-7.5-7.5h-25.632v-26.417h41.9c4.142,0,7.5-3.357,7.5-7.5s-3.358-7.5-7.5-7.5H164.1v-9.849h25.631
			c4.142,0,7.5-3.357,7.5-7.5v-33.132c0-4.143-3.358-7.5-7.5-7.5H164.1v-59.554h183.798v117.534H235.866c-4.142,0-7.5,3.357-7.5,7.5
			s3.358,7.5,7.5,7.5h112.033v26.417h-25.633c-4.142,0-7.5,3.357-7.5,7.5s3.358,7.5,7.5,7.5h25.633v34.7h-25.633
			c-4.142,0-7.5,3.357-7.5,7.5s3.358,7.5,7.5,7.5h25.633v34.7h-25.634c-4.142,0-7.5,3.357-7.5,7.5s3.358,7.5,7.5,7.5h25.634v26.413
			h-183.8V437.449z M347.9,487.933c0,5-4.068,9.067-9.068,9.067H173.167c-5,0-9.068-4.067-9.068-9.067v-9.07H347.9V487.933z"/>
	</g>
</g>
<g>
</g>
<g>
</g>
<g>
</g>
<g>
</g>
<g>
</g>
<g>
</g>
<g>
</g>
<g>
</g>
<g>
</g>
<g>
</g>
<g>
</g>
<g>
</g>
<g>
</g>
<g>
</g>
<g>
</g>
</svg>
