<?xml version="1.0" standalone="no"?>
<!DOCTYPE svg PUBLIC "-//W3C//DTD SVG 20010904//EN"
 "http://www.w3.org/TR/2001/REC-SVG-20010904/DTD/svg10.dtd">
<svg version="1.0" xmlns="http://www.w3.org/2000/svg"
 width="200.000000pt" height="200.000000pt" viewBox="0 0 200.000000 200.000000"
 preserveAspectRatio="xMidYMid meet">
<metadata>
Created by potrace 1.15, written by Peter Selinger 2001-2017
</metadata>
<g transform="translate(0.000000,200.000000) scale(0.100000,-0.100000)"
fill="#000000" stroke="none">
<path d="M906 1978 c-9 -12 -16 -42 -16 -65 0 -24 -4 -43 -10 -43 -5 0 -19 -9
-30 -20 -19 -19 -20 -33 -20 -200 0 -167 1 -181 20 -200 11 -11 25 -20 30 -20
6 0 10 -61 10 -164 l0 -165 -27 -3 c-28 -3 -28 -4 -31 -80 l-3 -78 -127 0
c-150 0 -184 -13 -201 -77 -12 -41 -16 -727 -5 -782 4 -17 18 -42 32 -56 l25
-25 447 0 447 0 27 26 26 27 0 409 c0 262 -4 416 -10 429 -21 39 -62 49 -194
49 l-125 0 -3 78 -3 77 -32 3 -33 3 0 165 c0 139 2 164 15 164 8 0 24 9 35 20
19 19 20 33 20 200 0 167 -1 181 -20 200 -11 11 -27 20 -35 20 -11 0 -15 13
-15 53 0 29 -5 58 -12 65 -7 7 -43 12 -89 12 -69 0 -80 -3 -93 -22z m184 -328
l0 -150 -95 0 -95 0 0 150 0 150 95 0 95 0 0 -150z m-60 -385 l0 -165 -30 0
-30 0 0 165 0 165 30 0 30 0 0 -165z m60 -280 l0 -45 -95 0 -95 0 0 45 0 45
95 0 95 0 0 -45z m334 -141 c3 -9 6 -181 6 -383 0 -272 -3 -370 -12 -379 -17
-17 -819 -17 -836 0 -9 9 -12 107 -12 379 0 202 3 374 6 383 5 14 52 16 424
16 372 0 419 -2 424 -16z"/>
</g>
</svg>
