<?xml version="1.0" encoding="iso-8859-1"?>
<!-- Generator: Adobe Illustrator 19.0.0, SVG Export Plug-In . SVG Version: 6.00 Build 0)  -->
<svg version="1.1" id="Layer_1" xmlns="http://www.w3.org/2000/svg" xmlns:xlink="http://www.w3.org/1999/xlink" x="0px" y="0px"
	 viewBox="0 0 511.999 511.999" style="enable-background:new 0 0 511.999 511.999;" xml:space="preserve">
<g>
	<g>
		<path d="M255.999,101.865c-46.274,0-89.237,18.558-120.976,52.256c-3.442,3.654-3.269,9.408,0.384,12.85
			c3.655,3.441,9.408,3.271,12.851-0.384c26.177-27.791,60.929-44.01,98.652-46.259v17.933c0,5.02,4.069,9.09,9.09,9.09
			c5.021,0,9.09-4.07,9.09-9.09v-17.927c74.371,4.53,134.074,64.234,138.605,138.605h-17.927c-5.021,0-9.09,4.07-9.09,9.09
			c0,5.02,4.069,9.09,9.09,9.09h17.927c-4.531,74.372-64.233,134.075-138.605,138.605v-17.927c0-5.02-4.069-9.09-9.09-9.09
			c-5.021,0-9.09,4.07-9.09,9.09v17.927c-74.371-4.529-134.074-64.233-138.605-138.605h17.926c5.021,0,9.09-4.07,9.09-9.09
			c0-5.02-4.069-9.09-9.09-9.09h-17.933c1.3-21.103,7.111-41.807,17-60.372c2.36-4.432,0.681-9.937-3.75-12.297
			c-4.431-2.36-9.936-0.68-12.296,3.75c-12.701,23.846-19.415,50.822-19.415,78.008c0,91.623,74.539,166.162,166.162,166.162
			s166.162-74.539,166.162-166.162C422.161,176.405,347.622,101.865,255.999,101.865z"/>
	</g>
</g>
<g>
	<g>
		<path d="M482.163,41.866c-19.272-19.272-44.896-29.886-72.149-29.886c-27.254,0-52.878,10.614-72.151,29.886
			c-3.55,3.55-3.55,9.306,0,12.854l50.831,50.831c-37.359-30.626-83.746-47.28-132.694-47.28
			c-48.946,0-95.331,16.653-132.689,47.277l50.828-50.828c1.704-1.704,2.662-4.017,2.662-6.427c0-2.411-0.957-4.723-2.662-6.427
			c-24.007-24.006-58.261-34.48-91.632-28.019c-4.928,0.954-8.151,5.723-7.197,10.652c0.954,4.928,5.721,8.148,10.652,7.197
			c24.424-4.728,49.428,1.577,68.544,16.945L36.611,166.535C10.141,133.637,12.17,85.243,42.694,54.72
			c4.554-4.553,9.604-8.57,15.012-11.939c4.261-2.654,5.563-8.26,2.909-12.522c-2.654-4.261-8.261-5.562-12.522-2.909
			c-6.581,4.1-12.722,8.983-18.255,14.515c-39.783,39.783-39.783,104.516,0,144.299c1.776,1.774,4.103,2.663,6.428,2.663
			c2.326,0,4.653-0.887,6.428-2.663l50.932-50.932c-67.42,82.312-62.739,204.322,14.053,281.115
			c5.568,5.568,11.401,10.77,17.458,15.623l-21.033,55.757c-1.772,4.697,0.6,9.941,5.296,11.713
			c1.057,0.399,2.142,0.588,3.207,0.588c3.672,0,7.133-2.243,8.507-5.884l19.254-51.041c34.009,22.561,73.887,34.681,115.632,34.681
			s81.624-12.12,115.632-34.681l19.253,51.041c1.374,3.641,4.832,5.884,8.507,5.884c1.067,0,2.15-0.189,3.207-0.587
			c4.697-1.772,7.068-7.016,5.296-11.714l-21.033-55.757c6.056-4.853,11.89-10.055,17.456-15.623
			c10.06-10.06,19.101-21.129,26.871-32.899c2.766-4.19,1.612-9.828-2.577-12.594c-4.191-2.767-9.827-1.613-12.595,2.577
			c-7.097,10.75-15.36,20.863-24.556,30.06c-36.183,36.183-84.292,56.111-135.464,56.111s-99.281-19.928-135.466-56.111
			c-74.696-74.696-74.696-196.234,0-270.93c36.187-36.181,84.296-56.108,135.468-56.108s99.28,19.928,135.464,56.111
			c27.728,27.727,46.066,62.698,53.029,101.133c6.807,37.567,2.399,75.858-12.752,110.732c-2,4.604,0.112,9.959,4.716,11.959
			c4.607,2.001,9.96-0.113,11.959-4.716c16.586-38.183,21.415-80.1,13.965-121.217c-6.375-35.192-21.46-67.724-43.973-95.188
			l50.898,50.898c1.705,1.705,4.017,2.663,6.428,2.663s4.722-0.957,6.428-2.663C521.945,146.381,521.945,81.648,482.163,41.866z
			 M475.389,166.535L357.491,48.638c32.899-26.469,81.292-24.442,111.816,6.082C499.83,85.244,501.858,133.637,475.389,166.535z"/>
	</g>
</g>
<g>
	<g>
		<path d="M256.001,185.524c-5.021,0-9.09,4.07-9.09,9.09v64.322h-34.491c-5.021,0-9.09,4.07-9.09,9.09c0,5.02,4.069,9.09,9.09,9.09
			h43.581c5.021,0,9.09-4.07,9.09-9.09v-73.412C265.091,189.594,261.022,185.524,256.001,185.524z"/>
	</g>
</g>
<g>
</g>
<g>
</g>
<g>
</g>
<g>
</g>
<g>
</g>
<g>
</g>
<g>
</g>
<g>
</g>
<g>
</g>
<g>
</g>
<g>
</g>
<g>
</g>
<g>
</g>
<g>
</g>
<g>
</g>
</svg>
