<?xml version="1.0" encoding="iso-8859-1"?>
<!-- Generator: Adobe Illustrator 19.0.0, SVG Export Plug-In . SVG Version: 6.00 Build 0)  -->
<svg version="1.1" id="Capa_1" xmlns="http://www.w3.org/2000/svg" xmlns:xlink="http://www.w3.org/1999/xlink" x="0px" y="0px"
	 viewBox="0 0 512 512" style="enable-background:new 0 0 512 512;" xml:space="preserve">
<g>
	<g>
		<path d="M484.954,231.901c0.027-0.297,0.046-0.597,0.046-0.901V114.5c0-30.603-24.897-55.5-55.5-55.5H294.333
			c-5.523,0-10,4.477-10,10s4.477,10,10,10H429.5c19.575,0,35.5,15.925,35.5,35.5v103.501c-11.444-5.746-24.346-9.001-38-9.001
			h-17.086c0.053-0.619,0.086-1.243,0.086-1.875v-48.25c0-12.062-9.813-21.875-21.875-21.875h-96.25
			C279.813,137,270,146.813,270,158.875v48.25c0,0.632,0.033,1.256,0.086,1.875h-28.172c0.053-0.619,0.086-1.243,0.086-1.875v-48.25
			c0-12.062-9.813-21.875-21.875-21.875h-96.25C111.813,137,102,146.813,102,158.875v48.25c0,0.632,0.033,1.256,0.086,1.875H85
			c-13.654,0-26.556,3.255-38,9.001V114.5C47,94.925,62.925,79,82.5,79h131.167c5.523,0,10-4.477,10-10s-4.477-10-10-10H82.5
			C51.897,59,27,83.897,27,114.5V231c0,0.304,0.019,0.604,0.046,0.901C10.421,247.426,0,269.513,0,294v149c0,5.522,4.477,10,10,10
			h492c5.523,0,10-4.478,10-10V294C512,269.513,501.579,247.426,484.954,231.901z M290,158.875c0-1.034,0.841-1.875,1.875-1.875
			h96.25c1.034,0,1.875,0.841,1.875,1.875v48.25c0,1.034-0.841,1.875-1.875,1.875h-96.25c-1.034,0-1.875-0.841-1.875-1.875V158.875z
			 M122,158.875c0-1.034,0.841-1.875,1.875-1.875h96.25c1.034,0,1.875,0.841,1.875,1.875v48.25c0,1.034-0.841,1.875-1.875,1.875
			h-96.25c-1.034,0-1.875-0.841-1.875-1.875V158.875z M20,294c0-35.841,29.159-65,65-65h342c35.841,0,65,29.159,65,65v58.419
			c-30.338-17.102-69.584-12.774-95.385,13.029c-23.237,23.236-61.044,23.235-84.28-0.001
			c-31.033-31.033-81.53-31.031-112.563,0.001c-23.237,23.236-61.044,23.235-84.28-0.001C89.661,339.615,50.352,335.305,20,352.478
			V294z M492.001,433H20v-56.13c23.382-20.464,59.064-19.567,81.351,2.72c31.034,31.032,81.529,31.031,112.563-0.001
			c23.236-23.236,61.043-23.235,84.28,0.001c15.517,15.517,35.898,23.274,56.281,23.274c20.382,0,40.765-7.759,56.282-23.275
			c22.253-22.253,57.86-23.178,81.244-2.809V433z"/>
	</g>
</g>
<g>
	<g>
		<path d="M263.07,61.93C261.21,60.07,258.63,59,256,59s-5.21,1.07-7.07,2.93S246,66.37,246,69s1.07,5.21,2.93,7.07
			S253.37,79,256,79s5.21-1.07,7.07-2.93c1.86-1.86,2.93-4.44,2.93-7.07S264.93,63.79,263.07,61.93z"/>
	</g>
</g>
<g>
	<g>
		<path d="M346.953,259H124.547c-5.523,0-10,4.478-10,10c0,5.522,4.477,10,10,10h222.406c5.523,0,10-4.478,10-10
			C356.953,263.478,352.476,259,346.953,259z"/>
	</g>
</g>
<g>
	<g>
		<path d="M387.453,259h-0.25c-5.523,0-10,4.478-10,10c0,5.522,4.477,10,10,10h0.25c5.523,0,10-4.478,10-10
			C397.453,263.478,392.976,259,387.453,259z"/>
	</g>
</g>
<g>
</g>
<g>
</g>
<g>
</g>
<g>
</g>
<g>
</g>
<g>
</g>
<g>
</g>
<g>
</g>
<g>
</g>
<g>
</g>
<g>
</g>
<g>
</g>
<g>
</g>
<g>
</g>
<g>
</g>
</svg>
