<?xml version="1.0" encoding="utf-8"?>
<!-- Generator: Adobe Illustrator 21.1.0, SVG Export Plug-In . SVG Version: 6.00 Build 0)  -->
<svg version="1.1" id="Capa_1" xmlns="http://www.w3.org/2000/svg" xmlns:xlink="http://www.w3.org/1999/xlink" x="0px" y="0px"
	 viewBox="0 0 512 512" style="enable-background:new 0 0 512 512;" xml:space="preserve">
<style type="text/css">
	.st0{fill:#9E1122;}
</style>
<g>
	<g>
		<path class="st0" d="M479.7,428.6h-72.4c-4.1,0-7.5,3.4-7.5,7.5s3.4,7.5,7.5,7.5h64.9v4.2L363,468.5H144.1L34.9,447.8v-4.2h29.8
			c0,0,0,0,0,0c0,0,0,0,0,0h27c0,0,0,0,0,0c0,0,0,0,0,0h89.9c0,0,0,0,0,0c0,0,0,0,0,0h26.8c0,0,0,0,0,0s0,0,0,0h89.8c0,0,0,0,0,0
			s0,0,0,0h80.9c4.1,0,7.5-3.4,7.5-7.5s-3.4-7.5-7.5-7.5h-48.4c9-5.7,17.3-12.4,24.8-19.9c10.8-10.9,19.8-23.1,26.6-36.4
			c9.5,3.9,19.5,5.8,29.9,5.8c43.9,0,79.7-35.7,79.7-79.7c0-43.9-35.7-79.7-79.7-79.7c-4.8,0-9.5,0.4-14.1,1.3v-4.3
			c0-9.6-7.8-17.4-17.4-17.4h-35.5c-4.1,0-7.5,3.4-7.5,7.5s3.4,7.5,7.5,7.5h35.5c1.3,0,2.4,1.1,2.4,2.4v12.8H123.8v-12.8
			c0-1.3,1.1-2.4,2.4-2.4h191.3c4.1,0,7.5-3.4,7.5-7.5s-3.4-7.5-7.5-7.5H126.2c-9.6,0-17.4,7.8-17.4,17.4v90.6
			c0,11.3,1.3,22.5,3.9,33.4c-12.2-3.6-26.8-0.8-40,8.3c-3.4,2.3-4.3,7-2,10.4c2.3,3.4,7,4.3,10.4,2c8.7-6,17.8-8.3,25.4-6.8
			l-27.3,40.9c-2.3,3.4-1.4,8.1,2.1,10.4c1.3,0.9,2.7,1.3,4.2,1.3c2.4,0,4.8-1.2,6.2-3.3L119,362c2.8,4.2,4.4,9.7,4.5,16.1
			c0,0,0,0,0,0c0,0,0,0,0,0c0.1,9.9-3.4,20.6-9.7,30.2c-3.6,5.4-7.9,10.1-12.8,13.9c-3.4,2.6-6.9,4.8-10.6,6.3H66.7
			c-0.3-0.2-0.5-0.3-0.8-0.5c-12.5-8.3-13.3-29.9-1.8-49.1c2.1-3.6,1-8.2-2.6-10.3c-3.6-2.1-8.2-1-10.3,2.6
			c-7.3,12.2-10.9,25.9-10.1,38.4c0.5,7.1,2.3,13.5,5.4,18.9H27.4c-4.1,0-7.5,3.4-7.5,7.5V454c0,3.6,2.6,6.7,6.1,7.4l110.3,20.9
			v22.2c0,4.1,3.4,7.5,7.5,7.5h219.5c4.1,0,7.5-3.4,7.5-7.5v-22.2l110.3-20.9c3.5-0.7,6.1-3.8,6.1-7.4v-17.9
			C487.2,431.9,483.9,428.6,479.7,428.6z M398.3,306.3v-35.5h0c4.3-2.2,9.2-3.4,14.1-3.4c17.1,0,31,13.9,31,31s-13.9,31-31,31
			c-5.4,0-10.7-1.4-15.4-4.1C397.9,319.1,398.3,312.8,398.3,306.3z M394.2,340.7c5.7,2.5,11.9,3.7,18.2,3.7c25.4,0,46-20.6,46-46
			s-20.6-46-46-46c-4.8,0-9.6,0.8-14.1,2.2v-18.6c0,0,0-0.1,0-0.1s0-0.1,0-0.1v-0.6c4.6-1,9.3-1.6,14.1-1.6
			c35.7,0,64.7,29,64.7,64.7c0,35.7-29,64.7-64.7,64.7c-8.3,0-16.2-1.5-23.8-4.5C390.9,352.8,392.7,346.8,394.2,340.7z M123.8,243.5
			h259.5v23.1c0,0,0,0,0,0v39.7c0,34.7-13.5,67.2-38,91.7c-13.6,13.6-30.2,24.1-48.1,30.5H210c-2.4-0.9-4.8-1.8-7.2-2.8
			c5.5-8.7,7.6-18.3,5.8-27.5c0,0,0,0,0,0c0,0,0,0,0,0c-2.4-11.9-10.8-21.8-23.8-27.7c-12.1-5.5-26.9-7-41.7-4
			c-1.3,0.3-2.7,0.6-4,0.9c-10-18.7-15.3-39.7-15.3-61.1V243.5z M126.2,416.7c6.9-10.4,11.1-22,12.1-33.3c2.5-0.8,5.1-1.6,7.8-2.1
			c19.1-3.8,37.5,2,44.8,12.9l-48.2,9.6c-4.1,0.8-6.7,4.8-5.9,8.8c0.7,3.6,3.8,6,7.3,6c0.5,0,1,0,1.5-0.1l48.2-9.6
			c-1,4.9-3.7,9.9-8.1,14.4c0,0,0,0,0,0c-1.8,1.9-3.9,3.6-6.2,5.2h-63.1C120,425,123.3,421,126.2,416.7z M355.8,497H151.3v-13.5
			h204.5V497z"/>
	</g>
</g>
<g>
	<g>
		<g>
			<path class="st0" d="M273.1,149.9c-0.1,0.1-0.2,0.2-0.3,0.2C272.8,150.1,273,150,273.1,149.9z"/>
			<path class="st0" d="M272.8,150.2C272.6,150.3,272.6,150.3,272.8,150.2L272.8,150.2z"/>
			<path class="st0" d="M289.3,81.9c10.1-9.6,15.9-22.9,15.9-37.2c0-17.8-9-34-24.1-43.5c-3.5-2.2-8.1-1.2-10.3,2.4
				c-2.2,3.5-1.2,8.1,2.4,10.3c10.7,6.7,17.1,18.2,17.1,30.8s-6.4,24.1-17.1,30.8c-4.6,2.9-4.6,9.8,0,12.7
				c10.7,6.7,17.1,18.2,17.1,30.8c0,12.6-6.4,24.1-17.1,30.8c0,0-0.1,0-0.1,0.1c0,0,0.1,0,0.1-0.1c-3.5,2.2-4.6,6.8-2.4,10.3
				c1.4,2.3,3.9,3.5,6.4,3.5c1.4,0,2.7-0.4,4-1.2c15.1-9.5,24.1-25.8,24.1-43.5C305.3,104.8,299.4,91.5,289.3,81.9z M277.1,147.4
				C277.3,147.3,277.3,147.3,277.1,147.4L277.1,147.4z M276.1,148c0.2-0.1,0.3-0.2,0.5-0.3C276.5,147.8,276.3,147.9,276.1,148z"/>
		</g>
	</g>
</g>
<g>
	<g>
		<path class="st0" d="M334,75.5c-3.5-2.2-8.1-1.2-10.3,2.4c-2.2,3.5-1.2,8.1,2.4,10.3c10.7,6.7,17.1,18.2,17.1,30.8
			c0,12.6-6.4,24.1-17.1,30.8c-3.5,2.2-4.6,6.8-2.4,10.3c1.4,2.3,3.9,3.5,6.4,3.5c1.4,0,2.7-0.4,4-1.2c15.1-9.5,24.1-25.8,24.1-43.5
			S349,85,334,75.5z"/>
	</g>
</g>
<g>
	<g>
		<path class="st0" d="M224.1,75.5c-3.5-2.2-8.1-1.2-10.3,2.4c-2.2,3.5-1.2,8.1,2.4,10.3c10.7,6.7,17.1,18.2,17.1,30.8
			c0,12.6-6.4,24.1-17.1,30.8c-3.5,2.2-4.6,6.8-2.4,10.3c1.4,2.3,3.9,3.5,6.4,3.5c1.4,0,2.7-0.4,4-1.2c15.1-9.5,24.1-25.8,24.1-43.5
			C248.1,101.3,239.2,85,224.1,75.5z"/>
	</g>
</g>
</svg>
