<?xml version="1.0" encoding="utf-8"?>
<!-- Generator: Adobe Illustrator 21.1.0, SVG Export Plug-In . SVG Version: 6.00 Build 0)  -->
<svg version="1.1" id="Capa_1" xmlns="http://www.w3.org/2000/svg" xmlns:xlink="http://www.w3.org/1999/xlink" x="0px" y="0px"
	 viewBox="0 0 512 512" style="enable-background:new 0 0 512 512;" xml:space="preserve">
<g>
	<g>
		<g>
			<path d="M293.1,101.2C303.5,91.3,310,77.4,310,62v-8c0-29.8-24.2-54-54-54s-54,24.2-54,54v8c0,15.4,6.5,29.3,16.9,39.2
				C191.5,112,172,138.8,172,170v103.8c0,5.5,4.5,10,10,10s10-4.5,10-10V170c0-29.8,24.2-54,54-54h20c29.8,0,54,24.2,54,54v104
				c0,5.5,4.5,10,10,10s10-4.5,10-10V170C340,138.8,320.5,112,293.1,101.2z M290,62c0,18.7-15.3,34-34,34s-34-15.3-34-34v-8
				c0-18.7,15.3-34,34-34s34,15.3,34,34V62z"/>
		</g>
	</g>
	<g>
		<g>
			<path d="M306,455.5V206c0-5.5-4.5-10-10-10s-10,4.5-10,10v43h-60v-43c0-5.5-4.5-10-10-10s-10,4.5-10,10v249.5
				c-18.4,7.4-31.5,25.5-31.5,46.5c0,5.5,4.5,10,10,10h143c5.5,0,10-4.5,10-10C337.5,480.9,324.4,462.9,306,455.5z M246,492h-49.8
				c4.1-11.7,15.3-20.1,28.4-20.1H246V492z M256,303c-5.5,0-10,4.5-10,10v138.9h-20V269h60v182.9h-20V313
				C266,307.5,261.5,303,256,303z M266,492v-20.1h21.4c13.1,0,24.3,8.4,28.4,20.1H266z"/>
		</g>
	</g>
</g>
</svg>
