<?xml version="1.0" encoding="iso-8859-1"?>
<!-- Generator: Adobe Illustrator 19.0.0, SVG Export Plug-In . SVG Version: 6.00 Build 0)  -->
<svg version="1.1" id="Capa_1" xmlns="http://www.w3.org/2000/svg" xmlns:xlink="http://www.w3.org/1999/xlink" x="0px" y="0px"
	 viewBox="0 0 463 463" style="enable-background:new 0 0 463 463;" xml:space="preserve">
<g>
	<path d="M311.5,0h-160C129.72,0,112,17.72,112,39.5v409c0,7.995,6.505,14.5,14.5,14.5h210c7.995,0,14.5-6.505,14.5-14.5v-409
		C351,17.72,333.28,0,311.5,0z M151.5,15h160c13.509,0,24.5,10.991,24.5,24.5V152H127V39.5C127,25.991,137.991,15,151.5,15z
		 M127,448V167h209v281H127z"/>
	<path d="M263.5,135h48c4.142,0,7.5-3.358,7.5-7.5s-3.358-7.5-7.5-7.5h-48c-4.142,0-7.5,3.358-7.5,7.5S259.358,135,263.5,135z"/>
	<path d="M311.5,184h-48c-4.142,0-7.5,3.358-7.5,7.5s3.358,7.5,7.5,7.5h48c4.142,0,7.5-3.358,7.5-7.5S315.642,184,311.5,184z"/>
</g>
<g>
</g>
<g>
</g>
<g>
</g>
<g>
</g>
<g>
</g>
<g>
</g>
<g>
</g>
<g>
</g>
<g>
</g>
<g>
</g>
<g>
</g>
<g>
</g>
<g>
</g>
<g>
</g>
<g>
</g>
</svg>
