<?xml version="1.0" encoding="iso-8859-1"?>
<!-- Generator: Adobe Illustrator 19.0.0, SVG Export Plug-In . SVG Version: 6.00 Build 0)  -->
<svg version="1.1" id="Layer_1" xmlns="http://www.w3.org/2000/svg" xmlns:xlink="http://www.w3.org/1999/xlink" x="0px" y="0px"
	 viewBox="0 0 511.998 511.998" style="enable-background:new 0 0 511.998 511.998;" xml:space="preserve">
<g>
	<g>
		<path d="M428.866,83.009c-3.712-3.151-9.275-2.694-12.425,1.016c-3.151,3.712-2.696,9.275,1.016,12.425
			c37.811,32.097,59.341,78.696,59.071,127.847c-0.221,39.851-14.547,77.879-40.494,107.883
			c8.598-21.872,12.865-44.957,12.691-68.725c-0.275-36.286-10.712-70.07-29.388-95.132c-18.139-24.34-42.952-38.732-70.555-41.138
			l-4.069-66.652c15.929,3.404,31.228,9.145,45.607,17.128c1.355,0.752,2.823,1.11,4.271,1.11c3.098,0,6.104-1.637,7.714-4.537
			c2.364-4.257,0.83-9.623-3.427-11.987c-17.348-9.632-35.912-16.309-55.276-19.907l-0.991-16.227
			c-0.225-3.683-2.719-6.835-6.251-7.902c-80.422-24.282-165.439-24.282-245.861,0c-3.532,1.066-6.026,4.22-6.251,7.902
			l-0.083,1.366L22.243,63.259c-2.057,1.188-3.547,3.156-4.133,5.457c-0.586,2.301-0.22,4.743,1.018,6.769l56.46,92.476
			l-6.494,106.365c-0.296,4.859,3.403,9.039,8.262,9.336c4.857,0.287,9.04-3.403,9.336-8.262L101.338,35.51
			c0.26-0.724,0.424-1.479,0.49-2.247c73.274-20.868,150.301-20.836,223.562,0.099l25.062,410.524H76.407l7.881-129.094
			c0.296-4.859-3.403-9.04-8.262-9.336c-4.859-0.303-9.04,3.403-9.336,8.262l-7.946,130.169H45.133c-3.7,0-7.007,2.311-8.278,5.785
			l-18.479,50.48c-0.99,2.703-0.597,5.721,1.053,8.081c1.649,2.359,4.347,3.766,7.225,3.766h282.389c4.87,0,8.816-3.947,8.816-8.816
			s-3.946-8.816-8.816-8.816H39.268l12.023-32.849h324.276l12.023,32.849h-43.287c-4.87,0-8.816,3.947-8.816,8.816
			s3.946,8.816,8.816,8.816h55.903c2.879,0,5.576-1.406,7.225-3.766s2.042-5.376,1.053-8.081l-18.479-50.48
			c-1.272-3.475-4.578-5.785-8.278-5.785h-13.611l-18.247-298.88c26.984,3.19,44.81,19.735,55.33,33.851
			c16.451,22.077,25.646,52.167,25.893,84.728c0.174,23.715-4.534,46.67-13.992,68.213c-3.273,7.429-0.823,15.762,5.959,20.265
			c2.835,1.883,5.995,2.803,9.118,2.803c4.316,0,8.562-1.76,11.786-5.171c32.109-34.034,49.935-78.533,50.195-125.302
			C494.458,170.019,470.659,118.487,428.866,83.009z M77.465,137.203L38.883,74.007l43.992-25.421L77.465,137.203z"/>
	</g>
</g>
<g>
	<g>
		<path d="M213.431,86.489c-17.107,0-31.026,13.918-31.026,31.026v238.267c0,17.108,13.919,31.027,31.026,31.027
			s31.026-13.919,31.026-31.027V117.515C244.457,100.407,230.538,86.489,213.431,86.489z M200.034,117.515
			c0.001-7.387,6.01-13.396,13.396-13.396s13.395,6.009,13.395,13.395v18.296h-26.791V117.515z M226.826,355.781
			c0,7.386-6.009,13.396-13.395,13.396s-13.396-6.01-13.396-13.396v-38.377h26.791V355.781z M226.826,299.773h-26.791V262.75h26.791
			V299.773z M226.826,245.119h-26.791v-37.023h26.791V245.119z M226.826,190.465h-26.791v-37.023h26.791V190.465z"/>
	</g>
</g>
<g>
</g>
<g>
</g>
<g>
</g>
<g>
</g>
<g>
</g>
<g>
</g>
<g>
</g>
<g>
</g>
<g>
</g>
<g>
</g>
<g>
</g>
<g>
</g>
<g>
</g>
<g>
</g>
<g>
</g>
</svg>
