<?xml version="1.0" standalone="no"?>
<!DOCTYPE svg PUBLIC "-//W3C//DTD SVG 20010904//EN"
 "http://www.w3.org/TR/2001/REC-SVG-20010904/DTD/svg10.dtd">
<svg version="1.0" xmlns="http://www.w3.org/2000/svg"
 width="200.000000pt" height="200.000000pt" viewBox="0 0 200.000000 200.000000"
 preserveAspectRatio="xMidYMid meet">
<metadata>
Created by potrace 1.15, written by Peter Selinger 2001-2017
</metadata>
<g transform="translate(0.000000,200.000000) scale(0.100000,-0.100000)"
fill="#000000" stroke="none">
<path d="M936 1918 c-14 -13 -28 -35 -32 -50 -6 -26 -4 -28 27 -28 18 0 41 7
51 16 14 13 21 14 32 5 19 -16 10 -41 -15 -41 -23 0 -39 -29 -39 -73 0 -35 -1
-35 -102 -78 -192 -79 -233 -99 -253 -123 l-20 -24 -42 19 c-48 21 -54 41 -19
64 71 47 49 159 -36 180 -51 13 -118 -38 -118 -90 0 -21 66 -20 74 0 3 8 15
15 26 15 31 0 26 -36 -7 -52 -24 -11 -28 -20 -31 -58 l-3 -45 -157 -65 c-188
-77 -212 -96 -212 -170 0 -60 27 -95 81 -105 19 -3 179 -5 357 -3 l324 3 29
33 c23 25 29 42 29 77 l0 45 120 0 120 0 0 -40 c0 -54 17 -86 55 -105 28 -12
85 -15 354 -15 399 0 411 3 411 115 0 68 -27 89 -212 165 -173 71 -179 77
-128 128 50 50 36 127 -27 157 -59 28 -122 -3 -138 -67 -7 -27 -5 -28 28 -28
23 0 39 6 45 16 11 19 47 15 47 -6 0 -8 -12 -21 -27 -28 -24 -11 -28 -19 -28
-58 0 -43 -2 -45 -42 -63 l-43 -19 -20 24 c-20 24 -61 44 -252 123 -66 28
-103 49 -103 58 0 9 14 31 31 51 27 31 30 41 26 76 -11 79 -103 115 -161 64z
m224 -337 c91 -38 169 -76 175 -85 7 -11 6 -22 -1 -33 -10 -17 -37 -18 -334
-18 -297 0 -324 1 -334 18 -7 11 -8 22 -1 33 6 9 82 47 170 84 88 37 160 68
160 69 0 1 74 -30 165 -68z m-638 -112 c30 -12 68 -37 89 -60 34 -37 39 -39
95 -39 69 0 107 -20 102 -53 l-3 -22 -335 0 -335 0 0 28 c0 28 7 32 160 97 88
37 163 68 167 69 4 1 31 -8 60 -20z m1178 -48 c158 -66 165 -70 165 -98 l0
-28 -335 0 c-332 0 -335 0 -338 21 -5 32 24 48 101 55 66 6 73 9 102 42 24 28
103 73 135 76 3 1 79 -30 170 -68z"/>
<path d="M65 1118 c-3 -7 -4 -247 -3 -533 l3 -520 465 0 465 0 0 530 0 530
-463 3 c-365 2 -464 0 -467 -10z m865 -148 l0 -90 -400 0 -400 0 0 90 0 90
400 0 400 0 0 -90z m0 -500 l0 -340 -400 0 -400 0 0 340 0 340 400 0 400 0 0
-340z"/>
<path d="M180 965 l0 -35 130 0 130 0 0 35 0 35 -130 0 -130 0 0 -35z"/>
<path d="M372 724 c-169 -84 -210 -316 -79 -452 56 -59 121 -86 207 -86 86 0
151 27 207 86 33 34 72 110 73 141 0 13 8 17 35 17 33 0 35 2 35 35 0 33 -2
35 -35 35 -30 0 -35 3 -35 23 0 37 -48 123 -88 158 -58 51 -107 69 -193 69
-61 0 -85 -5 -127 -26z m206 -60 c47 -19 88 -58 113 -106 25 -48 24 -58 -5
-58 -17 0 -27 9 -36 30 -17 42 -73 88 -115 96 -140 26 -243 -117 -172 -240 59
-103 213 -102 273 0 20 33 32 44 51 44 21 0 23 -3 17 -22 -12 -40 -53 -92 -90
-118 -28 -18 -53 -25 -103 -28 -82 -4 -138 22 -184 86 -41 57 -50 148 -19 208
54 104 169 151 270 108z m-39 -119 c56 -29 63 -106 14 -145 -70 -55 -166 20
-132 102 11 28 50 57 77 58 7 0 26 -7 41 -15z"/>
<path d="M1442 1058 c-7 -7 -12 -36 -12 -65 0 -50 -2 -53 -35 -69 -34 -16 -65
-50 -78 -86 -6 -16 -21 -18 -119 -18 -62 0 -119 -4 -126 -8 -9 -6 -12 -33 -10
-98 l3 -89 72 -5 71 -5 111 -94 c61 -52 111 -97 110 -100 0 -5 -136 -128 -294
-268 -36 -31 -36 -32 -19 -58 9 -14 23 -25 30 -23 7 2 86 68 175 148 89 80
164 146 168 147 3 2 85 -65 181 -147 96 -82 180 -150 186 -150 11 0 49 49 42
54 -16 12 -348 298 -348 301 0 1 48 45 106 96 l105 94 87 5 87 5 3 89 c3 98
-1 106 -55 106 -18 0 -33 5 -33 10 0 6 11 10 25 10 14 0 28 7 32 16 7 19 -25
184 -39 202 -15 17 -409 17 -426 0z m376 -90 l3 -28 -160 0 -161 0 0 30 0 31
158 -3 157 -3 3 -27z m-38 -123 l0 -25 -197 0 -198 1 28 24 c28 24 32 25 198
25 l169 0 0 -25z m90 -125 l0 -30 -370 0 -370 0 0 30 0 30 370 0 370 0 0 -30z
m-225 -109 c-88 -80 -149 -131 -155 -131 -5 0 -45 32 -90 70 l-81 70 167 0
c96 0 164 -4 159 -9z"/>
</g>
</svg>
