<?xml version="1.0" encoding="iso-8859-1"?>
<!-- Generator: Adobe Illustrator 19.0.0, SVG Export Plug-In . SVG Version: 6.00 Build 0)  -->
<svg version="1.1" id="Layer_1" xmlns="http://www.w3.org/2000/svg" xmlns:xlink="http://www.w3.org/1999/xlink" x="0px" y="0px"
	 viewBox="0 0 512 512" style="enable-background:new 0 0 512 512;" xml:space="preserve">
<g>
	<g>
		<path d="M503.397,49.784H90.383c-4.752,0-8.603,3.852-8.603,8.603c0,4.751,3.851,8.603,8.603,8.603h404.411v300.373H17.206V66.99
			h47.174c4.752,0,8.603-3.852,8.603-8.603c0-4.751-3.851-8.603-8.603-8.603H8.603C3.851,49.784,0,53.636,0,58.387v317.579
			c0,4.751,3.851,8.603,8.603,8.603h152.762v23.733h-21.221c-24.984,0-45.31,20.326-45.31,45.31c0,4.751,3.851,8.603,8.603,8.603
			h305.126c4.752,0,8.603-3.852,8.603-8.603c0-24.984-20.326-45.31-45.31-45.31h-21.221V384.57h152.762
			c4.752,0,8.603-3.852,8.603-8.603V58.387C512,53.636,508.148,49.784,503.397,49.784z M178.571,384.571h154.857v23.733H178.571
			V384.571z M371.856,425.51c12.496,0,23.115,8.199,26.757,19.501H113.387c3.642-11.302,14.261-19.501,26.757-19.501H371.856z"/>
	</g>
</g>
<g>
	<g>
		<path d="M470.13,263.388c4.752,0,8.603-3.852,8.603-8.603V91.653c0-4.751-3.851-8.603-8.603-8.603H41.868
			c-4.752,0-8.603,3.852-8.603,8.603v251.049c0,4.751,3.851,8.603,8.603,8.603H470.13c4.752,0,8.603-3.852,8.603-8.603v-60.385
			c0-4.751-3.851-8.603-8.603-8.603c-4.752,0-8.603,3.852-8.603,8.603v51.782H50.471V100.256h411.056v154.529
			C461.527,259.536,465.378,263.388,470.13,263.388z"/>
	</g>
</g>
<g>
	<g>
		<path d="M231.144,141.66h-84.12c-4.752,0-8.603,3.852-8.603,8.603c0,4.751,3.851,8.603,8.603,8.603h34.221v125.225
			c0,4.751,3.851,8.603,8.603,8.603c4.752,0,8.603-3.852,8.603-8.603V158.867h32.692c4.752,0,8.603-3.852,8.603-8.603
			C239.747,145.512,235.896,141.66,231.144,141.66z"/>
	</g>
</g>
<g>
	<g>
		<path d="M283.473,173.801l-9.856-26.533c-1.653-4.454-6.608-6.723-11.06-5.069c-4.454,1.654-6.723,6.606-5.069,11.06l9.856,26.533
			c1.287,3.466,4.572,5.609,8.065,5.609c0.995,0,2.007-0.174,2.994-0.54C282.858,183.207,285.127,178.255,283.473,173.801z"/>
	</g>
</g>
<g>
	<g>
		<path d="M367.97,142.198c-4.452-1.655-9.406,0.615-11.06,5.069l-41.648,112.116l-23.843-64.192
			c-1.653-4.454-6.608-6.723-11.06-5.069c-4.454,1.654-6.723,6.606-5.069,11.06l31.91,85.905c1.251,3.371,4.469,5.607,8.064,5.607
			s6.813-2.237,8.064-5.607l49.711-133.828C374.693,148.804,372.424,143.852,367.97,142.198z"/>
	</g>
</g>
<g>
</g>
<g>
</g>
<g>
</g>
<g>
</g>
<g>
</g>
<g>
</g>
<g>
</g>
<g>
</g>
<g>
</g>
<g>
</g>
<g>
</g>
<g>
</g>
<g>
</g>
<g>
</g>
<g>
</g>
</svg>
